<?xml version="1.0" encoding="utf-8"?>
<!-- Generator: Adobe Illustrator 24.1.1, SVG Export Plug-In . SVG Version: 6.00 Build 0)  -->
<svg version="1.1" id="Layer_1" xmlns="http://www.w3.org/2000/svg" xmlns:xlink="http://www.w3.org/1999/xlink" x="0px" y="0px"
	 viewBox="0 0 300 300" style="enable-background:new 0 0 300 300;" xml:space="preserve">
<style type="text/css">
	.st0{fill:#920123;}
	.st1{fill:#E65758;}
</style>
<path class="st0" d="M204.8,53.7C190.16,39.06,170.7,31,150,31s-40.16,8.06-54.8,22.7c-14.64,14.64-22.7,34.1-22.7,54.8
	s8.06,40.16,22.7,54.8S129.3,186,150,186s40.16-8.06,54.8-22.7s22.7-34.1,22.7-54.8S219.44,68.34,204.8,53.7z M150,140.5
	c-8.55,0-16.59-3.33-22.63-9.37c-6.04-6.04-9.37-14.08-9.37-22.63s3.33-16.59,9.37-22.63c6.04-6.04,14.08-9.37,22.63-9.37
	s16.59,3.33,22.63,9.37c6.04,6.04,9.37,14.08,9.37,22.63s-3.33,16.59-9.37,22.63C166.59,137.17,158.55,140.5,150,140.5z"/>
<path class="st1" d="M175.42,131.09c5.55-6.23,8.58-14.17,8.58-22.59s-3.03-16.36-8.58-22.59l29.36-29.36
	C218.16,70.63,225.5,89,225.5,108.5s-7.34,37.87-20.72,51.95L175.42,131.09z"/>
<path class="st1" d="M95.22,160.45C81.84,146.37,74.5,128,74.5,108.5s7.34-37.87,20.72-51.95l29.36,29.36
	c-5.55,6.23-8.58,14.17-8.58,22.59s3.03,16.36,8.58,22.59L95.22,160.45z"/>
<path class="st0" d="M175.29,216.05L150,259.85l-25.29-43.8c-0.69-1.19,0.61-2.51,1.82-1.87c7.15,3.75,15.16,5.74,23.47,5.74
	s16.31-1.99,23.47-5.74C174.68,213.54,175.97,214.86,175.29,216.05z"/>
</svg>
