<?xml version="1.0" encoding="utf-8"?>
<!-- Generator: Adobe Illustrator 24.1.1, SVG Export Plug-In . SVG Version: 6.00 Build 0)  -->
<svg version="1.1" id="Layer_1" xmlns="http://www.w3.org/2000/svg" xmlns:xlink="http://www.w3.org/1999/xlink" x="0px" y="0px"
	 viewBox="0 0 182 182" style="enable-background:new 0 0 182 182;" xml:space="preserve">
<style type="text/css">
	.st0{fill:#920123;}
	.st1{fill:#FFFFFF;}
</style>
<path class="st0" d="M155.4,26.7C138.2,9.5,115.3,0,91,0S43.8,9.5,26.7,26.7C9.5,43.8,0,66.7,0,91s9.5,47.2,26.7,64.4
	S66.7,182,91,182s47.2-9.5,64.4-26.6S182,115.3,182,91S172.5,43.8,155.4,26.7z M125.6,125.6c-9.3,9.3-21.6,14.4-34.6,14.4
	s-25.4-5.1-34.7-14.4S42,104.1,42,91s5.1-25.4,14.3-34.7S77.9,42,91,42s25.4,5.1,34.6,14.3S140,77.9,140,91S134.9,116.4,125.6,125.6
	z"/>
<path class="st1" d="M179.5,91c0,24.4-9.9,46.6-25.9,62.6l-26.2-26.2c9.3-9.3,15.1-22.2,15.1-36.4s-5.8-27.1-15.1-36.4l26.2-26.2
	C169.6,44.4,179.5,66.6,179.5,91z"/>
<path class="st1" d="M39.5,91c0,14.2,5.8,27.1,15.1,36.4l-26.2,26.2c-16-16-25.9-38.1-25.9-62.6s9.9-46.6,25.9-62.6l26.2,26.2
	C45.3,63.9,39.5,76.8,39.5,91z"/>
<g>
	<g>
		<path class="st0" d="M125.5,70.6c-2.6,1.1-5.3,1.9-8.1,2.2c2.9-1.8,5.2-4.5,6.2-7.8c-2.7,1.6-5.8,2.8-9,3.4
			c-2.6-2.8-6.3-4.5-10.3-4.5c-7.8,0-14.1,6.4-14.1,14.1c0,1.1,0.1,2.2,0.3,3.2c-11.8-0.6-22.1-6.2-29.1-14.8
			c-1.2,2.1-1.9,4.5-1.9,7.1c0,4.9,2.5,9.2,6.3,11.7c-2.3,0-4.5-0.7-6.4-1.7c0,0,0,0.1,0,0.2c0,6.9,4.9,12.6,11.3,13.9
			c-1.1,0.3-2.4,0.5-3.7,0.5c-0.9,0-1.8-0.1-2.7-0.2c1.8,5.6,7,9.7,13.2,9.8c-4.8,3.8-10.9,6-17.5,6c-1.2,0-2.3-0.1-3.4-0.2
			c6.3,4,13.7,6.3,21.7,6.3c26,0,40.2-21.5,40.2-40.2c0-0.6,0-1.2-0.1-1.8C121.2,76,123.5,73.5,125.5,70.6z"/>
	</g>
</g>
</svg>
