<?xml version="1.0" encoding="utf-8"?>
<!-- Generator: Adobe Illustrator 24.1.1, SVG Export Plug-In . SVG Version: 6.00 Build 0)  -->
<svg version="1.1" id="Layer_1" xmlns="http://www.w3.org/2000/svg" xmlns:xlink="http://www.w3.org/1999/xlink" x="0px" y="0px"
	 viewBox="0 0 300 300" style="enable-background:new 0 0 300 300;" xml:space="preserve">
<style type="text/css">
	.st0{fill:#920123;}
	.st1{fill:#FFFFFF;}
	.st2{display:none;}
	.st3{display:inline;}
</style>
<path class="st0" d="M214.35,85.65C197.16,68.47,174.31,59,150,59c-24.31,0-47.16,9.47-64.35,26.65C68.47,102.84,59,125.69,59,150
	c0,24.31,9.47,47.16,26.65,64.35S125.69,241,150,241c24.31,0,47.16-9.46,64.35-26.65S241,174.31,241,150
	C241,125.69,231.54,102.84,214.35,85.65z M184.65,184.65C175.4,193.9,163.09,199,150,199s-25.4-5.1-34.65-14.35
	C106.1,175.4,101,163.09,101,150s5.1-25.4,14.35-34.65S136.91,101,150,101s25.4,5.1,34.65,14.35C193.9,124.6,199,136.91,199,150
	S193.9,175.4,184.65,184.65z"/>
<path class="st1" d="M238.5,150c0,24.44-9.9,46.56-25.92,62.58l-26.16-26.16c9.32-9.32,15.08-22.2,15.08-36.42
	c0-14.22-5.76-27.1-15.08-36.42l26.16-26.16C228.6,103.44,238.5,125.56,238.5,150z"/>
<path class="st1" d="M98.5,150c0,14.22,5.76,27.1,15.08,36.42l-26.16,26.16C71.4,196.56,61.5,174.44,61.5,150s9.9-46.56,25.92-62.58
	l26.16,26.16C104.26,122.9,98.5,135.78,98.5,150z"/>
<g class="st2">
	<g class="st3">
		<path class="st0" d="M184.46,129.63c-2.56,1.12-5.29,1.87-8.14,2.23c2.93-1.75,5.16-4.5,6.22-7.81c-2.73,1.63-5.75,2.78-8.96,3.42
			c-2.59-2.76-6.29-4.47-10.32-4.47c-7.82,0-14.12,6.35-14.12,14.13c0,1.12,0.09,2.2,0.33,3.22c-11.75-0.57-22.14-6.2-29.12-14.78
			c-1.22,2.12-1.93,4.54-1.93,7.14c0,4.89,2.52,9.23,6.28,11.74c-2.27-0.04-4.5-0.7-6.38-1.74c0,0.04,0,0.1,0,0.16
			c0,6.87,4.9,12.57,11.32,13.88c-1.15,0.31-2.4,0.47-3.7,0.47c-0.9,0-1.82-0.05-2.68-0.24c1.83,5.6,7.03,9.71,13.2,9.84
			c-4.81,3.76-10.91,6.03-17.52,6.03c-1.16,0-2.27-0.05-3.38-0.19c6.26,4.04,13.68,6.34,21.68,6.34c26,0,40.22-21.54,40.22-40.21
			c0-0.62-0.02-1.23-0.05-1.83C180.18,134.98,182.54,132.49,184.46,129.63z"/>
	</g>
</g>
</svg>
